<?xml version="1.0"?>
<svg xmlns:rdf="http://www.w3.org/1999/02/22-rdf-syntax-ns#" xmlns="http://www.w3.org/2000/svg" xmlns:cc="http://creativecommons.org/ns#" xmlns:dc="http://purl.org/dc/elements/1.1/" xmlns:svg="http://www.w3.org/2000/svg" id="svg2" viewBox="0 0 186.72 200.18" version="1.1">
  <g id="layer1" transform="translate(-35.487 -300.67)">
    <path id="path2830" d="m86.641 500.42c-0.6875-0.26878-1.25-1.5996-1.25-2.9574 0-1.8439-0.75923-2.7334-3-3.5145-2.1582-0.75235-3-1.6899-3-3.341 0-1.2624-0.675-2.5542-1.5-2.8708-0.86482-0.33186-1.5-1.8262-1.5-3.5291 0-2.2217 1.0186-3.8253 4.111-6.4723 4.5665-3.9088 10.096-5.5375 21.639-6.3744 3.9875-0.28908 7.25-0.87861 7.25-1.3101 0-1.1997-6.9673-6.4164-11.926-8.9296-3.2867-1.6658-5.5391-2.1178-8.7495-1.756-6.2527 0.70477-7.3244 1.9853-7.3244 8.752 0 5.3576-0.25488 5.9978-3.5348 8.8776-4.0777 3.5802-5.512 3.8144-7.8102 1.2748-2.5265-2.7918-2.1306-8.7866 0.77205-11.689l2.427-2.427-3.0038-2.5275c-1.6521-1.3901-3.4192-2.5275-3.927-2.5275s-0.93016-1.9125-0.93858-4.25c-0.0191-5.3064-0.68069-6.3244-4.6727-7.1902-5.5325-1.2-12.124-14.263-13.907-27.56-0.87755-6.5462-0.65525-10.613 0.98391-18 1.3996-6.3074 0.0634-15.023-2.4279-15.836-1.64-0.53529-4.9612-4.051-4.9612-5.2518 0-0.43004 0.52479-2.0487 1.1662-3.597s1.2039-3.1151 1.25-3.4818c0.0461-0.36666 0.34743-0.93031 0.66966-1.2525 0.32223-0.32223-0.44977-4.5222-1.7156-9.3333s-2.7964-11.388-3.4014-14.616c-0.60495-3.2276-1.6242-6.7079-2.2649-7.7338-0.9381-1.5021-0.82432-2.2061 0.58424-3.6146 2.1318-2.1318 5.1503-0.72087 5.3209 2.4872 0.0601 1.1296 0.43777 2.8808 0.83929 3.8917 0.40153 1.0109 1.124 4.313 1.6056 7.338 0.71551 4.4949 2.9728 14.903 4.2289 19.5 0.54077 1.9789 1.8575 3.5 3.0297 3.5 0.65706 0 2.423-3.8189 3.9244-8.4864 3.0404-9.4524 9.5103-23.398 14.389-31.014 4.3395-6.7747 17.533-19.42 24.874-23.841 12.709-7.6531 30.527-11.458 45.147-9.6412 21.741 2.7016 41.732 15.754 52.622 34.359 4.8161 8.2274 7.1658 14.996 10.955 31.558 2.3668 10.346 4.7759 14.402 4.7759 8.0412 0-2.9734 1.792-12.142 4.1976-21.476 0.56695-2.2 1.2508-6.025 1.5196-8.5 0.73736-6.788 4.3873-9.9889 7.3372-6.4344 1.0734 1.2934 1.029 2.0323-0.25568 4.25-0.85525 1.4764-2.3178 6.0594-3.2501 10.184-0.93229 4.125-2.2064 9.525-2.8314 12-1.2128 4.8032-1.2818 10.931-0.19839 17.628 0.56889 3.5163 0.35115 4.3497-1.4696 5.625-2.9773 2.0854-5.9727 8.324-5.276 10.988 0.31706 1.2124 1.17 3.3417 1.8954 4.7316 2.4988 4.7878 1.012 23.955-2.3627 30.46-2.954 5.6934-3.306 6.5367-3.306 7.9192 0 2.4844-3.8766 6.3737-6.9694 6.9923-2.5576 0.51151-3.0306 1.0695-3.0306 3.5754 0 6.6584-8.5516 11.008-18.675 9.4986-2.4872-0.37083-5.7213-0.0926-8 0.68812l-3.825 1.3106 4.5 0.71759c2.475 0.39468 7.9325 0.75095 12.128 0.79172 9.6078 0.0934 14.872 2.0712 14.872 5.5875 0 1.3676 0.39754 2.4866 0.88342 2.4866 0.48589 0 1.0963 1.1137 1.3565 2.4749 0.68832 3.6007-1.9877 5.5134-7.8187 5.5885-3.8447 0.0495-4.4455 0.25514-2.7466 0.93992 4.4786 1.8051 10.325 6.075 10.325 7.5406 0 2.5013-2.7421 2.7742-5.1678 0.51433-2.0777-1.9356-13.768-6.2135-14.753-5.3985-0.23134 0.19148 0.55616 1.3879 1.75 2.6586 2.4054 2.5605 2.8058 5.6464 0.97061 7.4816-2.7176 2.7176-11.906 0.53935-24.569-5.8245-6.0489-3.0399-6.4175-3.1011-10.5-1.7431-7.4958 2.4935-11.096 0.80928-17.457-8.1657-0.16891-0.23834-0.83793 0.0975-1.4867 0.74625-0.90612 0.90612-0.75698 1.4886 0.64328 2.5125 1.5112 1.105 1.6242 1.7041 0.66107 3.5038-1.4324 2.6765-3.4674 2.7514-6.9708 0.2567l-2.6882-1.9141-5.4662 3.8471c-13.784 9.7012-21.33 13.018-25.716 11.303zm4.75-2.7872c0-0.80587 1.4625-3.1525 3.25-5.2147l3.25-3.7495-3 2.1283c-7.0874 5.028-9.2561 8.3011-5.5 8.3011 1.1 0 2-0.65934 2-1.4652zm15.813-7.0348c4.9834-3.3 9.0892-6.3863 9.124-6.8584 0.11179-1.5194-5.2098 0.4071-11.406 4.1291-7.2285 4.3421-10.531 7.1239-10.531 8.8714 0 1.8912 2.4688 0.70769 12.813-6.1421zm64.187 2.0361c-3.575-1.2906-9.2-3.7375-12.5-5.4376-3.3-1.7-6.5625-3.0927-7.25-3.0947-2.9529-0.009-0.73599 1.7357 6.5007 5.1156 11.733 5.4799 12.481 5.7446 16.249 5.7544 3.1394 0.008 2.8303-0.23278-3-2.3376zm-79.306-3.0365 2.8058-2.5005-4.5 0.62833c-4.9705 0.69404-6.5705 1.6405-5.5538 3.2855 1.1324 1.8323 4.299 1.2149 7.2481-1.4134zm82.306 1.1106c0-0.41667-8.6315-4.6101-9.4891-4.6101-1.6215 0-0.0511 1.866 2.7391 3.2546 3.022 1.504 6.75 2.2526 6.75 1.3555zm1-3.1101c-1.375-0.78602-2.95-1.4291-3.5-1.4291s0.125 0.64311 1.5 1.4291c1.375 0.78602 2.95 1.4291 3.5 1.4291s-0.125-0.64311-1.5-1.4291zm-36-0.5c0-0.55-0.62264-1-1.3836-1-0.761 0-2.9705-1.7565-4.91-3.9033-3.0419-3.367-3.6269-4.8418-4.2579-10.734-0.6177-5.768-0.87679-6.444-1.666-4.3467-2.0886 5.5507 2.3263 15.247 8.7176 19.146 3.507 2.1395 3.5 2.1378 3.5 0.83769zm-13.598-0.84155c0.28606-0.46285-1.0834-2.3754-3.0431-4.25-1.9598-1.8746-4.6054-5.6584-5.8792-8.4084-2.2604-4.8802-2.3179-4.9233-2.3978-1.797-0.0928 3.6273 1.7337 8.297 3.2452 8.297 0.55339 0 0.69985 0.3063 0.32549 0.68067-0.86299 0.86299 4.2964 6.3193 5.9754 6.3193 0.68964 0 1.4879-0.3787 1.774-0.84155zm63.598 0.38834c0-0.89899-8.6558-4.2569-12.534-4.8623-4.6805-0.73072-4.2066-0.46724 5.0339 2.799 7.854 2.7762 7.5 2.6788 7.5 2.0633zm-102.81-1.2299c-0.72187-0.28887-1.5844-0.25335-1.9167 0.0789-0.33229 0.33229 0.25834 0.56864 1.3125 0.52522 1.165-0.048 1.4019-0.28494 0.60417-0.60416v0.00004zm17.812-3.0182c4.675-1.4251 8.95-3.0365 9.5-3.5809 1.2146-1.2022-0.36785-0.78795-10.346 2.7083-4.0402 1.4157-8.0902 2.5808-9 2.5893-0.90982 0.008-2.3292 0.47209-3.1542 1.0304-2.1135 1.4302 2.4829 0.45896 13-2.747zm38.5 1.7013c0.33992-0.55 0.16803-1-0.38197-1s-1.2781 0.45-1.618 1c-0.33992 0.55-0.16803 1 0.38197 1s1.2781-0.45 1.618-1zm25 0c-1.1-0.47269-2.675-0.85943-3.5-0.85943-0.94548 0-0.76064 0.31771 0.5 0.85943 1.1 0.47269 2.675 0.85943 3.5 0.85943 0.94548 0 0.76064-0.31771-0.5-0.85943zm-69.5-3.0572c9.3531-2.923 14-5.1339 14-6.661 0-1.0395-0.71591-0.96284-3.25 0.34822-1.7875 0.9248-5.5 2.3078-8.25 3.0734-2.75 0.76556-7.475 2.0742-10.5 2.9081-3.025 0.83389-6.7375 1.2737-8.25 0.9773-1.5125-0.29637-2.75-0.1001-2.75 0.43615 0 1.718 12.277 1.0188 19-1.0822zm41 1.0258c0-0.56727-0.6338-1.2746-1.4084-1.5719-0.77465-0.29726-1.9542-1.8581-2.6213-3.4686-0.66709-1.6105-1.6198-2.9281-2.1172-2.9281-0.88682 0 1.4286 5.2865 3.3944 7.75 1.2083 1.5142 2.7526 1.6368 2.7526 0.21862zm6-1.0217c0-0.57918-1.125-2.7086-2.5-4.7321-2.9209-4.2985-3.5849-1.8599-0.78439 2.8809 1.7276 2.9246 3.2844 3.8021 3.2844 1.8512zm-19.538-3.0081c-0.28945-0.46835-1.1843-0.59904-1.9885-0.29043-0.80423 0.30861-1.2254 0.9443-0.93595 1.4126 0.28945 0.46835 1.1843 0.59904 1.9885 0.29043 0.80423-0.30861 1.2254-0.9443 0.93595-1.4126zm-35.888-2.0596c0.84582-1.3686-0.98367-1.0352-3.1335 0.57097-1.8727 1.3992-1.8613 1.4302 0.32445 0.8793 1.2461-0.31404 2.5101-0.96666 2.809-1.4503zm32.844 0.51372c2.2961-0.88109 1.9434-2.3003-0.41821-1.6828-1.1 0.28766-2 0.92053-2 1.4064 0 1.0455 0.319 1.0819 2.4182 0.27638zm15.253-2.2885c-1.4222-7.111 1.9482-13.714 4.9233-9.6448 1.1388 1.5574 2.2612 1.6951 8.8138 1.081 5.8683-0.5499 7.6297-1.0843 8.0619-2.4461 0.30418-0.95838 1.9282-3.0592 3.609-4.6686 2.9613-2.8354 3.3306-2.9182 11.917-2.6736 10.112 0.28804 14.004-0.74807 14.004-3.7277 0-1.733-0.64833-2.0248-4.5-2.0248-5.708 0-7.9301-2.1155-9.3945-8.9437-2.037-9.4982-0.5847-28.764 2.4184-32.083 0.81184-0.89707 1.4761-2.3576 1.4761-3.2456 0-3.1655 4.0392-4.728 12.223-4.728 4.5183 0 7.7775-0.41905 7.7775-1 0-0.55 0.61288-1 1.362-1 0.85193 0 1.7797-2.0803 2.4776-5.5553 1.0309-5.133 0.93902-5.8361-1.2084-9.25-1.2782-2.0321-3.1312-6.3947-4.1177-9.6947-0.98649-3.3-2.1289-6.9-2.5387-8-0.40981-1.1-1.8093-4.925-3.1099-8.5-2.0078-5.5186-3.6746-7.8012-11.04-15.118-7.0975-7.0511-10.371-9.456-18-13.225-12.196-6.0246-20.207-7.8072-34.092-7.5861-23.219 0.36957-43.811 10.832-58.468 29.708-4.0984 5.2779-7.5363 11.827-11.928 22.721-1.5521 3.85-3.8751 7.9862-5.1622 9.1916-2.2274 2.086-2.284 2.4621-1.1746 7.8061 0.90764 4.3721 1.679 5.8097 3.4859 6.4967 1.2762 0.4852 2.6118 1.3539 2.9681 1.9304 0.59399 0.96109 5.4973 0.69678 9.7114-0.52349 2.7568-0.7983 6.8131 0.69284 8.0619 2.9637 3.2317 5.8764 5.6381 38.115 3.2757 43.885-0.47373 1.157-1.8098 1.75-3.9429 1.75-1.7745 0-3.4976 0.27127-3.8292 0.60282-1.0138 1.0138 1.2049 5.608 3.9261 8.1299 2.5157 2.3315 2.6545 2.3475 6.1146 0.70562 6.5525-3.1094 19.058 0.38478 26.544 7.4169 1.5486 1.4546 4.0236 2.739 5.5 2.8541 1.4764 0.11516 4.313 0.49503 6.3037 0.84415 3.3725 0.59149 3.6929 0.42377 4.698-2.4594 1.1621-3.3336 2.0981-3.7788 3.9827-1.8942 0.93333 0.93333 1.4667 0.93333 2.4 0 0.66-0.66 2.0581-1.2 3.107-1.2 1.4526 0 1.7174 0.41693 1.1112 1.75-1.0875 2.3917-0.80798 7.6532 0.54049 10.173 1.5816 2.9552 2.3896 2.569 1.7122-0.81834zm30.517 2.2124c-0.72188-0.28887-1.5844-0.25335-1.9167 0.0789-0.33229 0.33229 0.25834 0.56864 1.3125 0.52522 1.165-0.048 1.4019-0.28494 0.60417-0.60416v0.00004zm-92.342-4.3169c-0.23275-3.9447-1.4237-5.2614-2.4172-2.6724-0.53526 1.3949 1.1162 6.6724 2.088 6.6724 0.31089 0 0.45905-1.8 0.32924-4zm19.155 2.393c0-0.21615-0.675-0.39301-1.5-0.39301s-1.5 0.43588-1.5 0.96862c0 0.53273 0.675 0.70959 1.5 0.39301 0.825-0.31659 1.5-0.75246 1.5-0.96862zm96.476 0.7275c-1.753-1.6725-47.476-4.0087-47.476-2.4258 0 0.50201 5.9625 1.0023 13.25 1.1118s14.825 0.57442 16.75 1.0332c5.0482 1.203 18.672 1.4219 17.476 0.28076zm-90.106-1.151c-0.68236-0.68236-1.8479-0.70376-3.45-0.0634-2.2734 0.90871-2.2112 0.97092 1.0305 1.0305 2.368 0.0435 3.1268-0.25978 2.4195-0.96709zm22.13-1.9695c0.78687-1.2732-1.5299-1.2732-3.5 0-1.2195 0.78809-1.0902 0.97224 0.69098 0.98469 1.205 0.008 2.4691-0.43469 2.809-0.98469zm64.99 0.0157c0.29132-0.47136-2.8942-1.0052-7.0788-1.1864-4.1847-0.18114-7.8016-0.0147-8.0376 0.36992-0.23602 0.3846 2.1453 0.8346 5.2918 1s6.5251 0.3846 7.508 0.4871c0.98289 0.1025 2.0254-0.19929 2.3167-0.67065zm-55.49-1.5747c0-0.85746-0.45-1.2809-1-0.94098s-1 1.0415-1 1.559c0 0.51754 0.45 0.94098 1 0.94098s1-0.70156 1-1.559zm56.551-1.6325c-2.6272-1.5241-27.429-2.4364-26.037-0.95774 0.56429 0.59939 5.8848 1.2204 12 1.4007 6.0424 0.17812 12.111 0.40573 13.486 0.50582 2.3223 0.16904 2.3615 0.10161 0.55085-0.94876zm-27.551-0.80845c0-0.55-0.7875-0.99311-1.75-0.98469-1.4956 0.0131-1.5319 0.15626-0.25 0.98469 1.8872 1.2196 2 1.2196 2 0zm-88.009-6.28c-2.1282-2.0098-2.6721-2.2947-1.4487-0.75878 3.4967 4.3899 3.9522 4.8454 4.4075 4.4079 0.24679-0.23716-1.0847-1.8793-2.9588-3.6491zm118.86-8.2359c-0.24576-1.2506-0.88103-0.62899-2.1718 2.1252l-1.8244 3.8928 2.1718-2.1252c1.1945-1.1688 2.0155-2.9206 1.8244-3.8928zm-122.79-1.0323c-0.86504-2.8964-0.88253-2.903-0.96693-0.3664-0.0473 1.4208 0.21405 2.8833 0.58072 3.25 1.1611 1.1611 1.2952 0.15993 0.38621-2.8836zm114.74-8.97c1.332-2.7417 2.1993-6.4206 2.1993-9.3294 0-4.3374-0.21797-4.795-2.25-4.7232-1.5313 0.054-2.3316-0.55946-2.5054-1.9206-0.37757-2.9567 2.0903-7.0477 4.0473-6.7093 1.4461 0.2501 1.5988-0.37871 1.0932-4.5-0.81636-6.6541-2.2607-12.096-3.3969-12.798-2.3869-1.4752-7.7096 11.857-8.187 20.507-0.59951 10.862 2.4251 24 5.5252 24 0.70128 0 2.2647-2.037 3.4743-4.5268zm5.9302 3.8338c-0.97297-0.25354-2.323-0.23687-3 0.0371-0.67703 0.27393 0.11903 0.48137 1.769 0.46099 1.65-0.0204 2.2039-0.2445 1.231-0.49804v-0.00005zm-120.54-1.99c-0.72188-0.28887-1.5844-0.25335-1.9167 0.0789-0.33229 0.33229 0.25834 0.56864 1.3125 0.52522 1.1649-0.048 1.4019-0.28494 0.60417-0.60416v0.00004zm8.7686-8.1893c-0.0591-8.9172-3.1463-32.651-4.4117-33.917-1.3016-1.3016-2.4768 1.6578-3.0933 7.789-0.61714 6.1382-0.52467 6.5556 1.6616 7.5 2.2257 0.96138 2.4978 2.0005 2.0298 7.75-0.0784 0.9625-0.81746 1.75-1.6425 1.75-1.7775 0-1.7895 0.17236-0.49691 7.1135 1.5133 8.1261 2.952 11.169 4.6249 9.7802 0.9195-0.76313 1.3575-3.3244 1.3281-7.7662zm121.04 7.8103c0-0.51582-0.9-0.93785-2-0.93785s-2 0.35424-2 0.7872c0 0.43295 0.9 0.85499 2 0.93785 1.1 0.0829 2-0.27138 2-0.7872zm-8.75-0.60013c-0.6875-0.27741-1.8125-0.27741-2.5 0s-0.125 0.50439 1.25 0.50439 1.9375-0.22698 1.25-0.50439zm-118.25-0.72c0-0.90929-3.8983-1.2957-5.1393-0.50937-0.92513 0.58614-0.32035 0.86702 1.8893 0.87743 1.7875 0.008 3.25-0.15721 3.25-0.36806zm-12-2.6166c0-0.55-1.125-1-2.5-1s-2.5 0.45-2.5 1 1.125 1 2.5 1 2.5-0.45 2.5-1zm11-1.5852c0-0.83539-0.66867-1.1369-1.75-0.78903-1.3719 0.44132-1.4486 0.34839-0.35476-0.43017 0.99076-0.70521 1.1895-1.9646 0.68565-4.3443-0.39028-1.8432-0.95214-7.6262-1.2486-12.851-0.29643-5.225-0.9802-9.7749-1.5195-10.111-0.54559-0.33988-0.27797-0.88043 0.60332-1.2186 3.0365-1.1652 1.6948-2.9023-1.9162-2.4808-1.925 0.22474-3.5 0.049-3.5-0.39059 0-0.43956 1.665-0.7992 3.7-0.7992 2.4004 0 3.3579-0.34206 2.7262-0.97383-0.53561-0.53561-2.5542-0.71738-4.4857-0.40393-2.7408 0.44476-3.5175 1.0428-3.5376 2.7238-0.0142 1.1847 0.45192 2.4845 1.0357 2.8886 0.63338 0.4384 0.3557 0.74086-0.68856 0.75-1.8389 0.0161-2.1655 2.0959-0.85458 5.4422 0.67542 1.7241 0.82255 1.7504 1.3983 0.25 0.74471-1.9407 3.7137-2.2841 3.6909-0.42689-0.022 1.7989-1.2228 3.2993-3.2347 4.0416-2.5189 0.92937-2.3881 10.034 0.21761 15.145 1.0822 2.1226 1.7505 4.2106 1.4852 4.64-0.57285 0.92689 3.3071 1.6555 5.7972 1.0887 0.9625-0.2191 1.75-1.0068 1.75-1.7504zm-5.5-0.41475c-0.33992-0.55-0.14148-1 0.44098-1s1.059 0.45 1.059 1-0.19844 1-0.44098 1c-0.24255 0-0.7191-0.45-1.059-1zm136.33 0.61c2.5288-1.5629 1.2103-3.6072-2.3266-3.6072-1.925 0-3.5 0.4132-3.5 0.91821 0 0.50502-0.23001 1.5175-0.51113 2.25-0.55524 1.4467 4.1768 1.7745 6.3378 0.43894zm-7.7706-5.3572c1.2342-5.9246 0.70563-21.943-0.76883-23.3-0.43296-0.39863-1.6872-0.9947-2.7872-1.3246-1.9397-0.58172-2-0.13307-2 14.888 0 15.246 0.0341 15.488 2.1791 15.487 1.8472-0.00029 2.3615-0.87613 3.3769-5.7503zm-135.6 3.8191c0.31643-0.512 0.11397-1.216-0.44993-1.5646-1.3149-0.81265-5.0074 0.3398-5.0074 1.5628 0 1.2136 4.7074 1.2151 5.4573 0.002v-0.00029zm-2.4573-5.1281c0-0.51754-0.9-0.94098-2-0.94098-2.4263 0-2.6151-1.5564-0.34305-2.8279 1.488-0.83275 1.5322-1.7002 0.43382-8.5094-0.67272-4.1702-0.95173-10.095-0.62002-13.167l0.6031-5.5851-3.2869 1.7445c-2.5117 1.333-2.8742 1.8326-1.5369 2.1181 2.067 0.44131 2.3657 2.227 0.37244 2.227-0.75765 0-1.9595 0.70118-2.6707 1.5582-1.0577 1.2745-1.0555 3.0496 0.0121 9.75 1.4157 8.8848 3.0643 13.049 5.7648 14.56 1.8387 1.029 3.2714 0.62301 3.2714-0.92703zm145.75 0.26524c-0.9625-0.19408-1.75-0.91987-1.75-1.6129 0-2.0271 1.2081-2.6655 2.7004-1.427 0.98906 0.82085 1.692 0.84134 2.4616 0.0718 1.4089-1.4089 2.7398-8.4454 2.7945-14.775 0.0418-4.8395-0.0691-5.0459-2.8248-5.2558-2.8166-0.21462-2.8706-0.12135-2.9927 5.1746-0.0684 2.9662-0.97028 8.1112-2.0042 11.433-1.9591 6.2945-1.4102 8.6282 1.7371 7.3866 1.457-0.57481 1.4442-0.67939-0.12186-0.99518v-0.00004zm-1.9872-16.135c0.48868-6.8298 0.42853-7.0716-1.7592-7.0716-2.0611 0-2.2094 0.3379-1.6454 3.75 0.34091 2.0625 0.62479 5.7525 0.63084 8.2 0.0177 7.1647 2.1848 3.3533 2.7738-4.8784zm-142.76-2.5716c0-3.6667-0.4359-6.5-1-6.5-1.091 0-1.3366 7.1421-0.36972 10.75 1.0001 3.7317 1.3697 2.5847 1.3697-4.25zm141.53-9.3069c-0.30789-0.30789-1.1148-0.00064-1.7931 0.68278-0.98026 0.98762-0.8654 1.1025 0.5598 0.5598 0.98622-0.37553 1.5412-0.93469 1.2333-1.2426zm6.6922 0.46947c-1.2548-0.6966-2.0037-1.5442-1.6644-1.8836 0.33936-0.33935-0.36007-1.1399-1.5543-1.779-1.1942-0.63912-2.319-1.0131-2.4996-0.83102-0.54088 0.54541 2.9562 4.4765 4.5343 5.097 2.7136 1.067 3.4848 0.67399 1.1839-0.60335zm-138.69-3.47c-0.30789-0.30789-1.1148-0.00064-1.7931 0.68278-0.98027 0.98762-0.8654 1.1025 0.5598 0.5598 0.98622-0.37553 1.5412-0.93469 1.2333-1.2426zm138.47-2.7522c0-0.85746-0.45734-1.2764-1.0163-0.9309-0.55897 0.34546-0.75742 1.047-0.44098 1.559 0.85723 1.387 1.4573 1.1284 1.4573-0.62812zm-154-2c0-0.85746-0.45734-1.2764-1.0163-0.9309-0.55897 0.34546-0.75742 1.047-0.44099 1.559 0.85724 1.387 1.4573 1.1284 1.4573-0.62812zm154.99-5.75-0.006-3.191-1.4885 2.8541c-1.4934 2.8635-1.1717 5.1796 0.56995 4.1032 0.51199-0.31643 0.92813-2.0113 0.92474-3.7663h-0.00016zm-156.65-0.95c-0.75504-4.0411-2.2647-5.9549-1.6375-2.0758 0.60493 3.7411 1.1222 5.3258 1.7383 5.3258 0.27852 0 0.23313-1.4625-0.10085-3.25zm161.61-4.195c0.65956-0.79472 1.0522-2.4822 0.87244-3.75-0.25054-1.7674-0.86632-2.2296-2.64-1.9815-3.4039 0.47613-6.9188-2.2894-7.6761-6.0397-0.80914-4.0067-3.6444-11.916-4.7619-13.284-0.4493-0.55-1.5099-1.9-2.357-3-0.84703-1.1-1.3372-1.55-1.0892-1 0.24799 0.55 2.1376 6.4 4.1992 13 4.7284 15.138 9.4937 20.825 13.453 16.055zm-160.41-3.62c1.141-1.8461-0.12078-2.0153-3.6398-0.48796l-3.4013 1.4762 3.191 0.0391c1.755 0.0215 3.4876-0.4408 3.8501-1.0274v0.00004zm-1.1649-4.156c0.78725-1.257 0.75438-2.0469-0.1216-2.9229-1.574-1.574-5.6868 0.21571-7.2627 3.1603-1.0677 1.995-0.92202 2.0964 2.587 1.7996 2.1648-0.18311 4.1692-1.0342 4.7972-2.037zm163.99-19.78c1.9693-9.08 2.1182-14.717 0.21143-8-1.3399 4.7197-3.2687 13.566-4.5226 20.743-1.0904 6.2405 0.23591 6.3122 1.5557 0.0841 0.62088-2.9299 1.8608-8.702 2.7555-12.827zm-169.54 4.2726c-1.0491-4.275-2.3921-10.473-2.9844-13.773s-1.4744-6.4275-1.9603-6.95c-1.4681-1.5788-1.0353 1.9284 1.6991 13.768 1.4204 6.1501 2.7836 12.213 3.0293 13.473 0.24574 1.26 0.82415 2.0577 1.2854 1.7726 0.4612-0.28504-0.0198-4.0159-1.069-8.2909zm19.696-5.348c0.96385-3.0368-0.01-3.3484-1.34-0.42887-0.62755 1.3773-0.73098 2.5042-0.22983 2.5042s1.2076-0.93391 1.5699-2.0754zm131.47-8.1746c-1.8792-7.7179-8.8128-17.257-18.432-25.359-10.201-8.5918-19.475-12.919-33.872-15.805-13.101-2.6267-33.276 0.59224-46.827 7.4713-11.248 5.7099-21.986 15.86-26.917 25.443l-3.0871 6 3.2826-4c19.84-24.177 48.788-34.575 76.855-27.606 19.025 4.7235 34.192 15.444 45.878 32.43 1.7697 2.5722 3.3737 4.6767 3.5643 4.6767 0.19066 0-0.009-1.4625-0.44467-3.25zm-112.6-13.64c16.375-11.987 32.907-17.069 51.396-15.798 17.622 1.2111 31.317 6.9984 45.528 19.239 4.771 4.1097 8.6746 7.0845 8.6746 6.6106 0-0.47385-3.7764-4.655-8.392-9.2914-6.5994-6.6291-10.23-9.3532-16.997-12.753-4.7328-2.3776-10.069-4.7004-11.858-5.1618-1.7892-0.46145-5.053-1.315-7.253-1.8967-6.4639-1.7093-25.845-1.0992-33.422 1.052-14.902 4.2306-27.439 12.486-37.66 24.8-6.8911 8.3021-7.0944 10.373-0.26627 2.7117 2.8335-3.1791 7.446-7.4597 10.25-9.5124zm108.1 13.893c-0.33992-0.55-0.81648-1-1.059-1-0.24254 0-0.44098 0.45-0.44098 1s0.47656 1 1.059 1c0.58246 0 0.7809-0.45 0.44098-1zm-110-26c0.99548-1.1 1.585-2 1.31-2s-1.3145 0.9-2.31 2c-0.99549 1.1-1.585 2-1.31 2s1.3145-0.9 2.31-2zm98.5-1.393c0-0.21616-0.69837-0.661-1.5519-0.98855-0.88992-0.34149-1.2913-0.17385-0.94098 0.39301 0.58726 0.95021 2.4929 1.4054 2.4929 0.59554zm-88-5.9009c10.289-6.8974 27.985-11.682 41.484-11.217 13.094 0.45171 25.934 4.6102 39.319 12.734 6.3503 3.8544 4.175 1.0275-2.8215-3.6666-10.84-7.2728-19.053-10.043-35.481-11.969-7.6234-0.89351-26.347 2.8866-34.012 6.8668-4.9091 2.549-16.488 10.796-16.488 11.744 0 0.66365 0.45666 0.70741 1.25 0.11978 0.6875-0.50922 3.725-2.585 6.75-4.613z"/>
  </g>
  <metadata>
    <rdf:RDF>
      <cc:Work>
        <dc:format>image/svg+xml</dc:format>
        <dc:type rdf:resource="http://purl.org/dc/dcmitype/StillImage"/>
        <cc:license rdf:resource="http://creativecommons.org/licenses/publicdomain/"/>
        <dc:publisher>
          <cc:Agent rdf:about="http://openclipart.org/">
            <dc:title>Openclipart</dc:title>
          </cc:Agent>
        </dc:publisher>
        <dc:title>High Grade Headset</dc:title>
        <dc:date>2013-11-08T18:33:40</dc:date>
        <dc:description>Illustration taken from "THE RADIO AMATEUR'S HAND BOOK" 1922.</dc:description>
        <dc:source>http://openclipart.org/detail/188510/high-grade-headset-by-damauk-188510</dc:source>
        <dc:creator>
          <cc:Agent>
            <dc:title>damauk</dc:title>
          </cc:Agent>
        </dc:creator>
        <dc:subject>
          <rdf:Bag>
            <rdf:li>radio</rdf:li>
            <rdf:li>wireless</rdf:li>
          </rdf:Bag>
        </dc:subject>
      </cc:Work>
      <cc:License rdf:about="http://creativecommons.org/licenses/publicdomain/">
        <cc:permits rdf:resource="http://creativecommons.org/ns#Reproduction"/>
        <cc:permits rdf:resource="http://creativecommons.org/ns#Distribution"/>
        <cc:permits rdf:resource="http://creativecommons.org/ns#DerivativeWorks"/>
      </cc:License>
    </rdf:RDF>
  </metadata>
</svg>
